<?xml version="1.0" encoding="UTF-8"?>
<svg id="Capa_2" data-name="Capa 2" xmlns="http://www.w3.org/2000/svg" viewBox="0 0 237.32 237.31">
  <defs>
    <style>
      .cls-1 {
        fill: #fff;
        stroke-width: 0px;
      }
    </style>
  </defs>
  <g id="OBJECTS">
    <g>
      <path class="cls-1" d="m121.55,124.06c-.74-2.79-1.26-5.34-1.85-8.88h-.12c-.52,3.57-1.1,6.21-1.82,8.84l-.75,2.63h5.23l-.69-2.59Zm3.17-13.41l1.58,6.28c.77,3.24,1.52,6.42,2.08,9.65h.12c.4-3.22.97-6.44,1.64-9.7l1.34-6.23h-6.76Zm-16.39,0l1.3,6.6c.57,2.93,1.14,6.09,1.61,9.33h.14c.53-3.22,1.39-6.47,2.08-9.26l1.7-6.67h-6.83Zm-8.53,0h-11.18l-4.89,16h20.74l-4.67-16Zm0,0h-11.18l-4.89,16h20.74l-4.67-16Zm8.53,0l1.3,6.6c.57,2.93,1.14,6.09,1.61,9.33h.14c.53-3.22,1.39-6.47,2.08-9.26l1.7-6.67h-6.83Zm13.22,13.41c-.74-2.79-1.26-5.34-1.85-8.88h-.12c-.52,3.57-1.1,6.21-1.82,8.84l-.75,2.63h5.23l-.69-2.59Zm3.17-13.41l1.58,6.28c.77,3.24,1.52,6.42,2.08,9.65h.12c.4-3.22.97-6.44,1.64-9.7l1.34-6.23h-6.76Zm0,0l1.58,6.28c.77,3.24,1.52,6.42,2.08,9.65h.12c.4-3.22.97-6.44,1.64-9.7l1.34-6.23h-6.76Zm-5.02,4.53h-.12c-.52,3.57-1.1,6.21-1.82,8.84l-.75,2.63h5.23l-.69-2.59c-.74-2.79-1.26-5.34-1.85-8.88Zm-10.07,2.07c.57,2.93,1.14,6.09,1.61,9.33h.14c.53-3.22,1.39-6.47,2.08-9.26l1.7-6.67h-6.83l1.3,6.6Zm-21.01-6.6l-4.89,16h20.74l-4.67-16h-11.18ZM118.66,0C53.23,0,0,53.23,0,118.65s53.23,118.66,118.66,118.66,118.66-53.23,118.66-118.66S184.09,0,118.66,0Zm65.97,40.07c-5.62,4.73-11.67,8.81-18.07,12.2-1.69-5.33-3.58-10.4-5.68-15.12-2.59-5.79-5.42-10.95-8.47-15.45,11.88,4.15,22.78,10.43,32.22,18.37Zm-65.97-24.07c12.08,0,25.02,16.08,33.15,42.63-10.54,3.58-21.7,5.45-33.15,5.45s-22.61-1.88-33.14-5.46c8.13-26.54,21.06-42.62,33.14-42.62Zm-33.75,5.7c-3.04,4.5-5.88,9.66-8.46,15.45-2.11,4.72-4,9.79-5.69,15.11-6.39-3.38-12.45-7.46-18.07-12.19,9.45-7.94,20.34-14.22,32.22-18.37Zm-32.22,175.54c5.62-4.73,11.68-8.81,18.07-12.2,1.69,5.33,3.58,10.4,5.69,15.12,2.58,5.79,5.42,10.95,8.46,15.45-11.88-4.15-22.77-10.43-32.22-18.37Zm65.97,24.07c-12.08,0-25.01-16.08-33.14-42.62,10.53-3.59,21.7-5.46,33.14-5.46s22.61,1.87,33.15,5.45c-8.13,26.55-21.07,42.63-33.15,42.63Zm33.75-5.7c3.05-4.5,5.88-9.66,8.47-15.45,2.1-4.72,3.99-9.79,5.68-15.12,6.4,3.38,12.45,7.46,18.07,12.2-9.44,7.94-20.34,14.22-32.22,18.37Zm43.69-29.64c-7.77-6.71-16.28-12.31-25.32-16.74,1.56-7.11,2.79-14.56,3.65-22.24.49-4.25.86-8.57,1.13-12.95h-.31l-2.67-9.98c-.73-2.79-1.26-5.34-1.85-8.88h-.11c-.52,3.57-1.11,6.21-1.83,8.84l-2.84,10.02h-6.4c-.28,4.44-.68,8.77-1.19,12.95-.68,5.63-1.57,11.01-2.61,16.13-11.82-3.87-24.3-5.89-37.09-5.89s-25.27,2.02-37.08,5.89c-1.05-5.11-1.93-10.5-2.61-16.13-.51-4.19-.91-8.51-1.2-12.95h-4.58l-2.67-9.98c-.74-2.79-1.26-5.34-1.85-8.88h-.12c-.52,3.57-1.11,6.21-1.82,8.84l-2.85,10.02h-2.12c.27,4.38.64,8.7,1.13,12.95.86,7.69,2.09,15.13,3.66,22.25-9.05,4.43-17.56,10.03-25.32,16.74-14.06-16.15-23.17-36.72-24.92-59.33h37.12l-4.66-16H16.31c1.75-22.6,10.86-43.17,24.92-59.32,7.76,6.71,16.27,12.31,25.31,16.74-1.56,7.11-2.79,14.56-3.65,22.25-.76,6.62-1.25,13.42-1.46,20.33h-4.13l1.3,6.6c.56,2.93,1.13,6.09,1.61,9.33h.13c.54-3.22,1.4-6.47,2.08-9.26l2.99-11.73h7.01l2.84,11.34c.77,3.24,1.53,6.42,2.08,9.65h.12c.4-3.22.98-6.44,1.65-9.7l1.34-6.23h-3.03c.23-7.07.76-13.86,1.55-20.33.68-5.63,1.56-11.01,2.61-16.13,11.81,3.87,24.3,5.89,37.08,5.89s25.27-2.02,37.09-5.89c1.04,5.12,1.93,10.5,2.61,16.13.78,6.47,1.31,13.26,1.54,20.33h-.54l1.3,6.6c.57,2.93,1.14,6.09,1.62,9.33h.13c.53-3.22,1.39-6.47,2.08-9.26l2.99-11.73h7.01l2.84,11.34c.77,3.24,1.53,6.42,2.08,9.65h.12c.4-3.22.97-6.44,1.64-9.7l1.34-6.23h-6.62c-.21-6.91-.7-13.71-1.46-20.33-.86-7.68-2.09-15.13-3.65-22.24,9.04-4.43,17.55-10.04,25.32-16.75,14.06,16.15,23.16,36.72,24.91,59.32h-30.33l-4.88,16h35.21c-1.75,22.6-10.85,43.18-24.91,59.32Zm-56.45-75.32l-4.88,16h20.73l-4.67-16h-11.18Zm-13.35,6.28c.77,3.24,1.52,6.42,2.08,9.65h.12c.4-3.22.97-6.44,1.64-9.7l1.34-6.23h-6.76l1.58,6.28Zm-6.6-1.75h-.12c-.52,3.57-1.1,6.21-1.82,8.84l-.75,2.63h5.23l-.69-2.59c-.74-2.79-1.26-5.34-1.85-8.88Zm-10.07,2.07c.57,2.93,1.14,6.09,1.61,9.33h.14c.53-3.22,1.39-6.47,2.08-9.26l1.7-6.67h-6.83l1.3,6.6Zm-21.01-6.6l-4.89,16h20.74l-4.67-16h-11.18Zm11.18,0h-11.18l-4.89,16h20.74l-4.67-16Zm8.53,0l1.3,6.6c.57,2.93,1.14,6.09,1.61,9.33h.14c.53-3.22,1.39-6.47,2.08-9.26l1.7-6.67h-6.83Zm13.22,13.41c-.74-2.79-1.26-5.34-1.85-8.88h-.12c-.52,3.57-1.1,6.21-1.82,8.84l-.75,2.63h5.23l-.69-2.59Zm3.17-13.41l1.58,6.28c.77,3.24,1.52,6.42,2.08,9.65h.12c.4-3.22.97-6.44,1.64-9.7l1.34-6.23h-6.76Z"/>
      <path class="cls-1" d="m150.83,110.65h-11.18l-4.88,16h20.73l-4.67-16Zm0,0h-11.18l-4.88,16h20.73l-4.67-16Zm35.53-20.33H50.96c-6.6,0-12,5.4-12,12v32.67c0,6.6,5.4,12,12,12h135.4c6.6,0,12-5.4,12-12v-32.67c0-6.6-5.4-12-12-12Zm-104.89,43.72h-8.28l-2.67-9.98c-.74-2.79-1.26-5.34-1.85-8.88h-.12c-.52,3.57-1.11,6.21-1.82,8.84l-2.85,10.02h-8.3l-2.15-7.39-4.66-16-1.47-5.06h9.01l.99,5.06,1.3,6.6c.56,2.93,1.13,6.09,1.61,9.33h.13c.54-3.22,1.4-6.47,2.08-9.26l2.99-11.73h7.01l2.84,11.34c.77,3.24,1.53,6.42,2.08,9.65h.12c.4-3.22.98-6.44,1.65-9.7l1.34-6.23,1.08-5.06h8.64l-1.55,5.06-4.89,16-2.26,7.39Zm51.04,0h-8.29l-1.98-7.39-.69-2.59c-.74-2.79-1.26-5.34-1.85-8.88h-.12c-.52,3.57-1.1,6.21-1.82,8.84l-.75,2.63-2.1,7.39h-8.29l-2.15-7.39-4.67-16-1.47-5.06h9.01l.99,5.06,1.3,6.6c.57,2.93,1.14,6.09,1.61,9.33h.14c.53-3.22,1.39-6.47,2.08-9.26l1.7-6.67,1.29-5.06h7l1.27,5.06,1.58,6.28c.77,3.24,1.52,6.42,2.08,9.65h.12c.4-3.22.97-6.44,1.64-9.7l1.34-6.23,1.08-5.06h8.64l-1.55,5.06-4.88,16-2.26,7.39Zm53.29-7.39l-2.26,7.39h-8.29l-2.67-9.98c-.73-2.79-1.26-5.34-1.85-8.88h-.11c-.52,3.57-1.11,6.21-1.83,8.84l-2.84,10.02h-8.3l-2.15-7.39-4.67-16-1.47-5.06h9.01l.99,5.06,1.3,6.6c.57,2.93,1.14,6.09,1.62,9.33h.13c.53-3.22,1.39-6.47,2.08-9.26l2.99-11.73h7.01l2.84,11.34c.77,3.24,1.53,6.42,2.08,9.65h.12c.4-3.22.97-6.44,1.64-9.7l1.34-6.23,1.08-5.06h8.64l-1.55,5.06-4.88,16Zm-34.97-16h-11.18l-4.88,16h20.73l-4.67-16Z"/>
    </g>
  </g>
</svg>