<?xml version="1.0" encoding="UTF-8"?>
<svg id="Capa_2" data-name="Capa 2" xmlns="http://www.w3.org/2000/svg" viewBox="0 0 280.77 280.77">
  <defs>
    <style>
      .cls-1 {
        fill: #fff;
        stroke-width: 0px;
      }
    </style>
  </defs>
  <g id="objects">
    <g>
      <path class="cls-1" d="m247.67,0H33.1C14.85,0,0,14.85,0,33.1v214.57c0,18.25,14.85,33.1,33.1,33.1h214.57c18.25,0,33.1-14.85,33.1-33.1V33.1c0-18.25-14.85-33.1-33.1-33.1Zm23.1,247.67c0,12.74-10.36,23.1-23.1,23.1H33.1c-12.74,0-23.1-10.36-23.1-23.1V33.1c0-12.74,10.36-23.1,23.1-23.1h214.57c12.74,0,23.1,10.36,23.1,23.1v214.57Z"/>
      <path class="cls-1" d="m71.03,171.46c-11.15,2.32-19.55,12.21-19.55,24.04s8.4,21.73,19.55,24.05v27.8h10v-27.8c11.15-2.32,19.56-12.22,19.56-24.05s-8.41-21.72-19.56-24.04V33.42h-10v138.03Zm19.56,24.04c0,8.03-6.53,14.56-14.56,14.56s-14.55-6.53-14.55-14.56,6.53-14.55,14.55-14.55,14.56,6.52,14.56,14.55Z"/>
      <path class="cls-1" d="m135.46,61.52c-11.15,2.32-19.55,12.21-19.55,24.04s8.4,21.73,19.55,24.05v137.73h10V109.61c11.15-2.32,19.56-12.22,19.56-24.05s-8.41-21.72-19.56-24.04v-28.1h-10v28.1Zm19.56,24.04c0,8.03-6.53,14.56-14.56,14.56s-14.55-6.53-14.55-14.56,6.53-14.55,14.55-14.55,14.56,6.53,14.56,14.55Z"/>
      <path class="cls-1" d="m199.88,151.9c-11.15,2.32-19.55,12.22-19.55,24.05s8.4,21.72,19.55,24.04v47.36h10v-47.36c11.15-2.32,19.56-12.21,19.56-24.04s-8.41-21.73-19.56-24.05V33.42h-10v118.47Zm19.56,24.05c0,8.02-6.53,14.55-14.56,14.55s-14.55-6.53-14.55-14.55,6.53-14.56,14.55-14.56,14.56,6.53,14.56,14.56Z"/>
    </g>
  </g>
</svg>