<?xml version="1.0" encoding="UTF-8"?>
<svg xmlns="http://www.w3.org/2000/svg" viewBox="0 0 238.82 273.95">
  <defs>
    <style>
      .cls-1 {
        isolation: isolate;
      }

      .cls-2 {
        fill: #fff;
        stroke-width: 0px;
      }

      .cls-3 {
        mix-blend-mode: multiply;
      }
    </style>
  </defs>
  <g class="cls-1">
    <g id="Capa_2" data-name="Capa 2">
      <g id="Ebene_1" data-name="Ebene 1">
        <g class="cls-3">
          <path class="cls-2" d="m130.66,136.91l26.26,15.16,36.82-16.24-34.71-15.31-28.37,16.38Zm-4.54-43.7v34l22.49-13.32.9-.84,2-1.14,5.09-41.44-30.48,22.75Zm-5,180.74c-3.04,0-5-2.41-5-5.61v-34.72l-26.25,18.43c-.96.7-2.33,1.08-3.64,1.08-2.03,0-3.99-.89-5.02-2.31-1.74-2.4-.81-5.91,1.84-7.84l33.08-23.26v-28.95l-37.98,26.94c-.95.7-2.46,1.09-3.96,1.09-1.22,0-2.41-.27-3.25-.75-1.92-1.11-3.04-3.26-2.8-5.46l4.58-42.2-22.17,12.8-4.14,39.37c-.3,2.86-2.7,5.03-5.57,5.03-.2,0-.4-.01-.6-.03-1.49-.16-2.83-.89-3.77-2.05-.94-1.16-1.38-2.63-1.22-4.12l3.29-31.26-30.1,17.38c-.85.49-1.82.75-2.8.75-2,0-3.87-1.08-4.87-2.81-1.55-2.68-.63-6.12,2.05-7.66l30.11-17.38-28.64-12.62c-2.83-1.26-4.06-4.48-2.79-7.33.93-2.08,2.95-3.43,5.16-3.43.75,0,1.48.16,2.18.47l36.1,15.98,24.03-13.88-42.19-18.6c-2.03-.9-3.35-2.91-3.35-5.13s1.31-4.24,3.35-5.13l40.09-17.68-21.87-12.62-36.16,16.1c-.73.32-1.49.49-2.28.49-2.22,0-4.23-1.31-5.13-3.33-.61-1.37-.65-2.89-.11-4.29.54-1.4,1.59-2.51,2.96-3.12l28.71-12.78L2.87,76.09c-2.68-1.55-3.6-4.99-2.05-7.67,1-1.73,2.86-2.81,4.87-2.81.98,0,1.95.26,2.8.75l30.11,17.38-3.38-31.11c-.16-1.48.27-2.93,1.2-4.07.93-1.14,2.26-1.86,3.76-2.01.21-.02.42-.03.62-.03,2.91,0,5.33,2.11,5.63,4.91l4.24,39.25,22.4,12.89-4.72-44.48c-.23-2.11.98-4.3,3-5.47.84-.48,1.9-.75,2.99-.75,1.33,0,2.87.39,3.81,1.08l37.99,26.95v-26.68l-32.94-23.27c-1.27-.92-2.33-2.3-2.71-3.76-.38-1.49-.2-2.93.63-4.07,1.05-1.45,2.83-2.31,4.81-2.31,1.27,0,2.71.38,3.66,1.07l26.55,18.42V5.61c0-3.2,1.96-5.61,5-5.61s5,2.41,5,5.61v34.8l24.89-18.52c.95-.69,2.07-1.06,3.14-1.06,1.61,0,3.12.82,4.21,2.31.91,1.25,1.36,2.8,1.23,4.25-.14,1.47-.94,2.74-2.1,3.59l-31.36,23.28v25.07l34.09-25.36c.97-.71,2.02-1.08,3-1.08.82,0,1.7.25,2.57.75,1.92,1.11,3.02,3.26,2.79,5.47l-4.98,45.84,24.63-14.22,4.18-39.3c.3-2.83,2.7-4.95,5.6-4.95.2,0,.41.01.61.03,1.49.16,2.83.88,3.76,2.03s1.36,2.6,1.21,4.09l-3.35,31.17,30.11-17.38c.85-.49,1.82-.75,2.8-.75,2,0,3.87,1.08,4.87,2.81,1.55,2.68.63,6.12-2.05,7.66l-30.1,17.38,28.68,12.72c1.37.61,2.41,1.71,2.94,3.1.53,1.39.49,2.91-.12,4.28-.91,2.05-2.93,3.37-5.14,3.37-.77,0-1.53-.16-2.24-.48l-36.14-16.06-22.75,13.14,38.84,17.13c2.03.9,3.35,2.91,3.35,5.13,0,2.22-1.31,4.24-3.35,5.13l-40.95,18.06,24.92,14.39,36.12-16.03c.71-.32,1.46-.47,2.22-.47,2.21,0,4.23,1.33,5.15,3.39,1.27,2.86.03,6.09-2.82,7.36l-28.66,12.68,30.11,17.38c1.3.75,2.23,1.96,2.61,3.41.39,1.45.19,2.96-.56,4.26-1,1.73-2.86,2.81-4.86,2.81h0c-.98,0-1.95-.26-2.8-.75l-30.1-17.38,3.33,31.2c.16,1.49-.27,2.94-1.21,4.1-.94,1.16-2.27,1.88-3.76,2.03-.2.02-.4.03-.6.03-2.88,0-5.28-2.14-5.58-4.98l-4.14-39.32-24.41-14.12,4.82,43.56c.25,2.29-.75,4.39-2.62,5.46-.87.5-1.76.75-2.67.75-1.08,0-2.27-.38-3.24-1.09l-34.08-25.36v27.34l31.57,23.27c1.48,1.08,1.93,2.54,2.02,3.58.11,1.45-.32,3-1.24,4.27-1.07,1.47-2.63,2.31-4.3,2.31-1.11,0-2.29-.37-3.26-1.07l-24.79-18.52v34.8c0,3.2-1.96,5.61-5,5.61Zm5-95.47l30.63,22.73-4.71-39.1-3.49-2.18-22.43-13.3v31.85Zm-34.18-18.56l-7.11,3.47-2.94,37.66,34.22-24.21v-30.18l-24.18,13.26Zm-49.01-24.08l38.07,16.79,27.21-15.71-29.32-16.93-35.96,15.86Zm42.73-25.32l4.22,2.59,2.22.88,24.02,13.18v-32.32l-34.33-24.25,3.87,39.92Z"/>
        </g>
      </g>
    </g>
  </g>
</svg>